<mxfile host="65bd71144e">
    <diagram id="XVxEW9UY1d1fQ1gQtzrZ" name="imp_optional">
        <mxGraphModel dx="1141" dy="696" grid="1" gridSize="10" guides="1" tooltips="1" connect="1" arrows="1" fold="1" page="0" pageScale="1" pageWidth="827" pageHeight="1169" background="#ffffff" math="0" shadow="0">
            <root>
                <mxCell id="0"/>
                <mxCell id="1" parent="0"/>
                <mxCell id="Qt8wudLRJe1QKlv39LO7-27" value="" style="rounded=0;whiteSpace=wrap;html=1;labelBackgroundColor=none;strokeColor=#FFFF99;strokeWidth=3;fontFamily=Courier New;fontSize=14;fontColor=#000000;fillColor=#FFFF99;opacity=50;" parent="1" vertex="1">
                    <mxGeometry x="990" y="260" width="320" height="80" as="geometry"/>
                </mxCell>
                <mxCell id="Qt8wudLRJe1QKlv39LO7-26" value="" style="rounded=0;whiteSpace=wrap;html=1;labelBackgroundColor=none;strokeColor=#FFFF99;strokeWidth=3;fontFamily=Courier New;fontSize=14;fontColor=#000000;fillColor=#FFFF99;opacity=50;" parent="1" vertex="1">
                    <mxGeometry x="710" y="170" width="330" height="80" as="geometry"/>
                </mxCell>
                <mxCell id="Qt8wudLRJe1QKlv39LO7-25" value="" style="rounded=0;whiteSpace=wrap;html=1;labelBackgroundColor=none;strokeColor=#FFFF99;strokeWidth=3;fontFamily=Courier New;fontSize=14;fontColor=#000000;fillColor=#FFFF99;opacity=50;" parent="1" vertex="1">
                    <mxGeometry x="270" y="360" width="360" height="80" as="geometry"/>
                </mxCell>
                <mxCell id="pNhcLufGKfWTPu07xw5g-26" value="" style="rounded=0;whiteSpace=wrap;html=1;labelBackgroundColor=none;strokeColor=#006600;strokeWidth=3;fontFamily=Courier New;fontSize=14;fontColor=#000000;fillColor=#006600;opacity=50;" parent="1" vertex="1">
                    <mxGeometry x="1060" y="360" width="460" height="80" as="geometry"/>
                </mxCell>
                <mxCell id="pNhcLufGKfWTPu07xw5g-25" value="" style="rounded=0;whiteSpace=wrap;html=1;labelBackgroundColor=none;strokeColor=#006600;strokeWidth=3;fontFamily=Courier New;fontSize=14;fontColor=#000000;fillColor=#006600;opacity=50;" parent="1" vertex="1">
                    <mxGeometry x="650" y="360" width="390" height="80" as="geometry"/>
                </mxCell>
                <mxCell id="4" style="edgeStyle=none;html=1;exitX=0.5;exitY=1;exitDx=0;exitDy=0;entryX=0;entryY=0.5;entryDx=0;entryDy=0;fontSize=14;fontColor=#000000;strokeColor=#000000;strokeWidth=2;rounded=0;endArrow=none;endFill=0;" parent="1" source="2" target="3" edge="1">
                    <mxGeometry relative="1" as="geometry">
                        <Array as="points">
                            <mxPoint x="180" y="300"/>
                        </Array>
                    </mxGeometry>
                </mxCell>
                <mxCell id="8" style="edgeStyle=none;rounded=0;html=1;exitX=1;exitY=0.5;exitDx=0;exitDy=0;strokeColor=#000000;strokeWidth=2;fontSize=14;fontColor=#000000;endArrow=none;endFill=0;dashed=1;" parent="1" source="2" target="5" edge="1">
                    <mxGeometry relative="1" as="geometry"/>
                </mxCell>
                <mxCell id="2" value="Top" style="rounded=0;whiteSpace=wrap;html=1;strokeWidth=3;strokeColor=#000000;fillColor=none;fontSize=14;fontColor=#000000;" parent="1" vertex="1">
                    <mxGeometry x="120" y="120" width="120" height="40" as="geometry"/>
                </mxCell>
                <mxCell id="-Rbzho7PzyvOfMnekc-V-26" style="edgeStyle=none;rounded=0;html=1;exitX=0.5;exitY=1;exitDx=0;exitDy=0;entryX=0;entryY=0.5;entryDx=0;entryDy=0;strokeColor=#000000;strokeWidth=2;fontFamily=Courier New;fontSize=14;fontColor=#000000;endArrow=none;endFill=0;" parent="1" source="3" target="-Rbzho7PzyvOfMnekc-V-25" edge="1">
                    <mxGeometry relative="1" as="geometry">
                        <Array as="points">
                            <mxPoint x="280" y="410"/>
                        </Array>
                    </mxGeometry>
                </mxCell>
                <mxCell id="3" value="Hotel list for prefecture" style="rounded=0;whiteSpace=wrap;html=1;strokeWidth=3;strokeColor=#000000;fillColor=none;fontSize=14;fontColor=#000000;" parent="1" vertex="1">
                    <mxGeometry x="200" y="280" width="160" height="40" as="geometry"/>
                </mxCell>
                <mxCell id="7" style="edgeStyle=none;rounded=0;html=1;exitX=0.5;exitY=1;exitDx=0;exitDy=0;entryX=0;entryY=0.5;entryDx=0;entryDy=0;strokeColor=#000000;strokeWidth=2;fontSize=14;fontColor=#000000;endArrow=none;endFill=0;" parent="1" source="5" target="6" edge="1">
                    <mxGeometry relative="1" as="geometry">
                        <Array as="points">
                            <mxPoint x="660" y="410"/>
                        </Array>
                    </mxGeometry>
                </mxCell>
                <mxCell id="15" style="edgeStyle=none;rounded=0;html=1;exitX=0.5;exitY=1;exitDx=0;exitDy=0;entryX=0;entryY=0.5;entryDx=0;entryDy=0;strokeColor=#000000;strokeWidth=2;fontFamily=Courier New;fontSize=14;fontColor=#000000;endArrow=none;endFill=0;" parent="1" source="5" target="14" edge="1">
                    <mxGeometry relative="1" as="geometry">
                        <Array as="points">
                            <mxPoint x="660" y="220"/>
                        </Array>
                    </mxGeometry>
                </mxCell>
                <mxCell id="5" value="Admin Top" style="rounded=0;whiteSpace=wrap;html=1;strokeWidth=3;strokeColor=#000000;fillColor=none;fontSize=14;fontColor=#000000;" parent="1" vertex="1">
                    <mxGeometry x="600" y="120" width="120" height="40" as="geometry"/>
                </mxCell>
                <mxCell id="6" value="Create New Hotel" style="rounded=0;whiteSpace=wrap;html=1;strokeWidth=3;strokeColor=#000000;fillColor=none;fontSize=14;fontColor=#000000;" parent="1" vertex="1">
                    <mxGeometry x="720" y="390" width="140" height="40" as="geometry"/>
                </mxCell>
                <mxCell id="9" value="https://localhost/" style="text;html=1;strokeColor=none;fillColor=none;align=left;verticalAlign=middle;whiteSpace=wrap;rounded=0;strokeWidth=3;fontSize=14;fontColor=#000000;fontFamily=Courier New;labelBackgroundColor=#E6E6E6;" parent="1" vertex="1">
                    <mxGeometry x="120" y="90" width="160" height="30" as="geometry"/>
                </mxCell>
                <mxCell id="11" value="e.g" style="text;html=1;strokeColor=none;fillColor=none;align=left;verticalAlign=middle;whiteSpace=wrap;rounded=0;labelBackgroundColor=none;strokeWidth=3;fontFamily=Courier New;fontSize=14;fontColor=#000000;" parent="1" vertex="1">
                    <mxGeometry x="200" y="230" width="60" height="30" as="geometry"/>
                </mxCell>
                <mxCell id="12" value="https://localhost/admin" style="text;html=1;strokeColor=none;fillColor=none;align=left;verticalAlign=middle;whiteSpace=wrap;rounded=0;strokeWidth=3;fontSize=14;fontColor=#000000;fontFamily=Courier New;labelBackgroundColor=#E6E6E6;" parent="1" vertex="1">
                    <mxGeometry x="600" y="90" width="210" height="30" as="geometry"/>
                </mxCell>
                <mxCell id="13" value="https://localhost/admin/hotel/create/" style="text;html=1;strokeColor=none;fillColor=none;align=left;verticalAlign=middle;whiteSpace=wrap;rounded=0;strokeWidth=3;fontSize=14;fontColor=#000000;fontFamily=Courier New;labelBackgroundColor=#E6E6E6;" parent="1" vertex="1">
                    <mxGeometry x="720" y="360" width="320" height="30" as="geometry"/>
                </mxCell>
                <mxCell id="17" style="edgeStyle=none;rounded=0;html=1;exitX=0.5;exitY=1;exitDx=0;exitDy=0;entryX=0;entryY=0.5;entryDx=0;entryDy=0;strokeColor=#000000;strokeWidth=2;fontFamily=Courier New;fontSize=14;fontColor=#000000;endArrow=none;endFill=0;" parent="1" source="14" target="16" edge="1">
                    <mxGeometry relative="1" as="geometry">
                        <Array as="points">
                            <mxPoint x="780" y="310"/>
                        </Array>
                    </mxGeometry>
                </mxCell>
                <mxCell id="14" value="Search Hotel" style="rounded=0;whiteSpace=wrap;html=1;strokeWidth=3;strokeColor=#000000;fillColor=none;fontSize=14;fontColor=#000000;" parent="1" vertex="1">
                    <mxGeometry x="720" y="200" width="120" height="40" as="geometry"/>
                </mxCell>
                <mxCell id="24" style="edgeStyle=none;rounded=0;html=1;exitX=0.5;exitY=1;exitDx=0;exitDy=0;entryX=0;entryY=0.5;entryDx=0;entryDy=0;strokeColor=#000000;strokeWidth=2;fontFamily=Courier New;fontSize=14;fontColor=#000000;endArrow=none;endFill=0;" parent="1" source="16" target="22" edge="1">
                    <mxGeometry relative="1" as="geometry">
                        <Array as="points">
                            <mxPoint x="1070" y="410"/>
                        </Array>
                    </mxGeometry>
                </mxCell>
                <mxCell id="16" value="Result" style="rounded=0;whiteSpace=wrap;html=1;strokeWidth=3;strokeColor=#000000;fillColor=none;fontSize=14;fontColor=#000000;" parent="1" vertex="1">
                    <mxGeometry x="1000" y="290" width="140" height="40" as="geometry"/>
                </mxCell>
                <mxCell id="18" value="https://localhost/admin/hotel/search/" style="text;html=1;strokeColor=none;fillColor=none;align=left;verticalAlign=middle;whiteSpace=wrap;rounded=0;strokeWidth=3;fontSize=14;fontColor=#000000;fontFamily=Courier New;labelBackgroundColor=#E6E6E6;" parent="1" vertex="1">
                    <mxGeometry x="720" y="170" width="320" height="30" as="geometry"/>
                </mxCell>
                <mxCell id="19" value="https://localhost/admin/hotel/result" style="text;html=1;strokeColor=none;fillColor=none;align=left;verticalAlign=middle;whiteSpace=wrap;rounded=0;strokeWidth=3;fontSize=14;fontColor=#000000;fontFamily=Courier New;labelBackgroundColor=#E6E6E6;" parent="1" vertex="1">
                    <mxGeometry x="1000" y="260" width="420" height="30" as="geometry"/>
                </mxCell>
                <mxCell id="22" value="Edit Hotel" style="rounded=0;whiteSpace=wrap;html=1;strokeWidth=3;strokeColor=#000000;fillColor=none;fontSize=14;fontColor=#000000;" parent="1" vertex="1">
                    <mxGeometry x="1120" y="390" width="140" height="40" as="geometry"/>
                </mxCell>
                <mxCell id="25" value="https://localhost/admin/hotel/{hote_id}/update" style="text;html=1;strokeColor=none;fillColor=none;align=left;verticalAlign=middle;whiteSpace=wrap;rounded=0;strokeWidth=3;fontSize=14;fontColor=#000000;fontFamily=Courier New;labelBackgroundColor=#E6E6E6;" parent="1" vertex="1">
                    <mxGeometry x="1120" y="360" width="390" height="30" as="geometry"/>
                </mxCell>
                <mxCell id="-Rbzho7PzyvOfMnekc-V-25" value="About the hotel" style="rounded=0;whiteSpace=wrap;html=1;strokeWidth=3;strokeColor=#000000;fillColor=none;fontSize=14;fontColor=#000000;" parent="1" vertex="1">
                    <mxGeometry x="330" y="390" width="160" height="40" as="geometry"/>
                </mxCell>
                <mxCell id="-Rbzho7PzyvOfMnekc-V-27" value="https://localhost/hotel/{hotel_id}" style="text;html=1;strokeColor=none;fillColor=none;align=left;verticalAlign=middle;whiteSpace=wrap;rounded=0;strokeWidth=3;fontSize=14;fontColor=#000000;fontFamily=Courier New;labelBackgroundColor=#E6E6E6;" parent="1" vertex="1">
                    <mxGeometry x="330" y="360" width="290" height="30" as="geometry"/>
                </mxCell>
                <mxCell id="sDefcO-yfQaa7zZtIrE8-26" value="https://localhost/tokyo/hotellist" style="text;html=1;strokeColor=none;fillColor=none;align=left;verticalAlign=middle;whiteSpace=wrap;rounded=0;strokeWidth=3;fontSize=14;fontColor=#000000;fontFamily=Courier New;labelBackgroundColor=#E6E6E6;" parent="1" vertex="1">
                    <mxGeometry x="200" y="250" width="210" height="30" as="geometry"/>
                </mxCell>
            </root>
        </mxGraphModel>
    </diagram>
    <diagram name="imp_original" id="vC_jFhsQetArXaz8NcIF">
        <mxGraphModel dx="802" dy="696" grid="1" gridSize="10" guides="1" tooltips="1" connect="1" arrows="1" fold="1" page="0" pageScale="1" pageWidth="827" pageHeight="1169" background="#ffffff" math="0" shadow="0">
            <root>
                <mxCell id="MAjIejanaY9aI2KSdrdf-0"/>
                <mxCell id="MAjIejanaY9aI2KSdrdf-1" parent="MAjIejanaY9aI2KSdrdf-0"/>
                <mxCell id="5QRPBteyTS_3cvkxtGNC-0" style="edgeStyle=none;html=1;exitX=0.5;exitY=1;exitDx=0;exitDy=0;entryX=0;entryY=0.5;entryDx=0;entryDy=0;fontSize=14;fontColor=#000000;strokeColor=#000000;strokeWidth=2;rounded=0;endArrow=none;endFill=0;" parent="MAjIejanaY9aI2KSdrdf-1" source="5QRPBteyTS_3cvkxtGNC-2" target="5QRPBteyTS_3cvkxtGNC-4" edge="1">
                    <mxGeometry relative="1" as="geometry">
                        <Array as="points">
                            <mxPoint x="180" y="300"/>
                        </Array>
                    </mxGeometry>
                </mxCell>
                <mxCell id="5QRPBteyTS_3cvkxtGNC-1" style="edgeStyle=none;rounded=0;html=1;exitX=1;exitY=0.5;exitDx=0;exitDy=0;strokeColor=#000000;strokeWidth=2;fontSize=14;fontColor=#000000;endArrow=none;endFill=0;dashed=1;" parent="MAjIejanaY9aI2KSdrdf-1" source="5QRPBteyTS_3cvkxtGNC-2" target="5QRPBteyTS_3cvkxtGNC-7" edge="1">
                    <mxGeometry relative="1" as="geometry"/>
                </mxCell>
                <mxCell id="5QRPBteyTS_3cvkxtGNC-2" value="Top" style="rounded=0;whiteSpace=wrap;html=1;strokeWidth=3;strokeColor=#000000;fillColor=none;fontSize=14;fontColor=#000000;" parent="MAjIejanaY9aI2KSdrdf-1" vertex="1">
                    <mxGeometry x="120" y="120" width="120" height="40" as="geometry"/>
                </mxCell>
                <mxCell id="5QRPBteyTS_3cvkxtGNC-3" style="edgeStyle=none;rounded=0;html=1;exitX=0.5;exitY=1;exitDx=0;exitDy=0;entryX=0;entryY=0.5;entryDx=0;entryDy=0;strokeColor=#000000;strokeWidth=2;fontFamily=Courier New;fontSize=14;fontColor=#000000;endArrow=none;endFill=0;" parent="MAjIejanaY9aI2KSdrdf-1" source="5QRPBteyTS_3cvkxtGNC-4" target="5QRPBteyTS_3cvkxtGNC-22" edge="1">
                    <mxGeometry relative="1" as="geometry">
                        <Array as="points">
                            <mxPoint x="280" y="420"/>
                        </Array>
                    </mxGeometry>
                </mxCell>
                <mxCell id="5QRPBteyTS_3cvkxtGNC-4" value="Hotel list for prefecture" style="rounded=0;whiteSpace=wrap;html=1;strokeWidth=3;strokeColor=#000000;fillColor=none;fontSize=14;fontColor=#000000;" parent="MAjIejanaY9aI2KSdrdf-1" vertex="1">
                    <mxGeometry x="200" y="280" width="160" height="40" as="geometry"/>
                </mxCell>
                <mxCell id="5QRPBteyTS_3cvkxtGNC-6" style="edgeStyle=none;rounded=0;html=1;exitX=0.5;exitY=1;exitDx=0;exitDy=0;entryX=0;entryY=0.5;entryDx=0;entryDy=0;strokeColor=#000000;strokeWidth=2;fontFamily=Courier New;fontSize=14;fontColor=#000000;endArrow=none;endFill=0;" parent="MAjIejanaY9aI2KSdrdf-1" source="5QRPBteyTS_3cvkxtGNC-7" target="5QRPBteyTS_3cvkxtGNC-15" edge="1">
                    <mxGeometry relative="1" as="geometry">
                        <Array as="points">
                            <mxPoint x="420" y="220"/>
                        </Array>
                    </mxGeometry>
                </mxCell>
                <mxCell id="5QRPBteyTS_3cvkxtGNC-7" value="Admin Top" style="rounded=0;whiteSpace=wrap;html=1;strokeWidth=3;strokeColor=#000000;fillColor=none;fontSize=14;fontColor=#000000;" parent="MAjIejanaY9aI2KSdrdf-1" vertex="1">
                    <mxGeometry x="360" y="120" width="120" height="40" as="geometry"/>
                </mxCell>
                <mxCell id="5QRPBteyTS_3cvkxtGNC-9" value="https://localhost/" style="text;html=1;strokeColor=none;fillColor=none;align=left;verticalAlign=middle;whiteSpace=wrap;rounded=0;strokeWidth=3;fontSize=14;fontColor=#000000;fontFamily=Courier New;labelBackgroundColor=#E6E6E6;" parent="MAjIejanaY9aI2KSdrdf-1" vertex="1">
                    <mxGeometry x="120" y="90" width="160" height="30" as="geometry"/>
                </mxCell>
                <mxCell id="5QRPBteyTS_3cvkxtGNC-10" value="https://localhost/tokyo/hotellist" style="text;html=1;strokeColor=none;fillColor=none;align=left;verticalAlign=middle;whiteSpace=wrap;rounded=0;strokeWidth=3;fontSize=14;fontColor=#000000;fontFamily=Courier New;labelBackgroundColor=#E6E6E6;" parent="MAjIejanaY9aI2KSdrdf-1" vertex="1">
                    <mxGeometry x="200" y="250" width="210" height="30" as="geometry"/>
                </mxCell>
                <mxCell id="5QRPBteyTS_3cvkxtGNC-11" value="e.g" style="text;html=1;strokeColor=none;fillColor=none;align=left;verticalAlign=middle;whiteSpace=wrap;rounded=0;labelBackgroundColor=none;strokeWidth=3;fontFamily=Courier New;fontSize=14;fontColor=#000000;" parent="MAjIejanaY9aI2KSdrdf-1" vertex="1">
                    <mxGeometry x="200" y="230" width="60" height="30" as="geometry"/>
                </mxCell>
                <mxCell id="5QRPBteyTS_3cvkxtGNC-12" value="https://localhost/admin" style="text;html=1;strokeColor=none;fillColor=none;align=left;verticalAlign=middle;whiteSpace=wrap;rounded=0;strokeWidth=3;fontSize=14;fontColor=#000000;fontFamily=Courier New;labelBackgroundColor=#E6E6E6;" parent="MAjIejanaY9aI2KSdrdf-1" vertex="1">
                    <mxGeometry x="360" y="90" width="210" height="30" as="geometry"/>
                </mxCell>
                <mxCell id="5QRPBteyTS_3cvkxtGNC-14" style="edgeStyle=none;rounded=0;html=1;exitX=0.5;exitY=1;exitDx=0;exitDy=0;entryX=0;entryY=0.5;entryDx=0;entryDy=0;strokeColor=#000000;strokeWidth=2;fontFamily=Courier New;fontSize=14;fontColor=#000000;endArrow=none;endFill=0;" parent="MAjIejanaY9aI2KSdrdf-1" source="5QRPBteyTS_3cvkxtGNC-15" target="5QRPBteyTS_3cvkxtGNC-17" edge="1">
                    <mxGeometry relative="1" as="geometry">
                        <Array as="points">
                            <mxPoint x="540" y="300"/>
                        </Array>
                    </mxGeometry>
                </mxCell>
                <mxCell id="5QRPBteyTS_3cvkxtGNC-15" value="Search Hotel" style="rounded=0;whiteSpace=wrap;html=1;strokeWidth=3;strokeColor=#000000;fillColor=none;fontSize=14;fontColor=#000000;" parent="MAjIejanaY9aI2KSdrdf-1" vertex="1">
                    <mxGeometry x="480" y="200" width="120" height="40" as="geometry"/>
                </mxCell>
                <mxCell id="5QRPBteyTS_3cvkxtGNC-17" value="Result" style="rounded=0;whiteSpace=wrap;html=1;strokeWidth=3;strokeColor=#000000;fillColor=none;fontSize=14;fontColor=#000000;" parent="MAjIejanaY9aI2KSdrdf-1" vertex="1">
                    <mxGeometry x="600" y="280" width="140" height="40" as="geometry"/>
                </mxCell>
                <mxCell id="5QRPBteyTS_3cvkxtGNC-18" value="https://localhost/admin/hotel/search" style="text;html=1;strokeColor=none;fillColor=none;align=left;verticalAlign=middle;whiteSpace=wrap;rounded=0;strokeWidth=3;fontSize=14;fontColor=#000000;fontFamily=Courier New;labelBackgroundColor=#E6E6E6;" parent="MAjIejanaY9aI2KSdrdf-1" vertex="1">
                    <mxGeometry x="480" y="170" width="320" height="30" as="geometry"/>
                </mxCell>
                <mxCell id="5QRPBteyTS_3cvkxtGNC-19" value="https://localhost/admin/hotel/result" style="text;html=1;strokeColor=none;fillColor=none;align=left;verticalAlign=middle;whiteSpace=wrap;rounded=0;strokeWidth=3;fontSize=14;fontColor=#000000;fontFamily=Courier New;labelBackgroundColor=#E6E6E6;" parent="MAjIejanaY9aI2KSdrdf-1" vertex="1">
                    <mxGeometry x="600" y="250" width="420" height="30" as="geometry"/>
                </mxCell>
                <mxCell id="5QRPBteyTS_3cvkxtGNC-22" value="About the hotel" style="rounded=0;whiteSpace=wrap;html=1;strokeWidth=3;strokeColor=#000000;fillColor=none;fontSize=14;fontColor=#000000;" parent="MAjIejanaY9aI2KSdrdf-1" vertex="1">
                    <mxGeometry x="330" y="400" width="160" height="40" as="geometry"/>
                </mxCell>
                <mxCell id="5QRPBteyTS_3cvkxtGNC-23" value="https://localhost/hotel/{hotel_id}" style="text;html=1;strokeColor=none;fillColor=none;align=left;verticalAlign=middle;whiteSpace=wrap;rounded=0;strokeWidth=3;fontSize=14;fontColor=#000000;fontFamily=Courier New;labelBackgroundColor=#E6E6E6;" parent="MAjIejanaY9aI2KSdrdf-1" vertex="1">
                    <mxGeometry x="330" y="370" width="290" height="30" as="geometry"/>
                </mxCell>
            </root>
        </mxGraphModel>
    </diagram>
</mxfile>